# File created by Blade
# Date/Time:  Wed Jan 21 14:28:11 2015
# Frame Rate: 120.000 fps
#------------------------------------------------------
:FULLY-SPECIFIED
:DEGREES
137
root 18.822162 35.462377 -20.963864 -174.613014 -2.719085 -178.414716
Spine -11.116657 -0.114228 1.077730
Head 5.950075 -1.724972 0.297199
LeftShoulder -16.822095 -8.429082 0.572419
LeftArm -42.158590 20.755247 -99.763599
LeftForeArm -11.787773 -0.000000 7.728696
LeftHand -4.898575 -0.000000 -37.259019
LeftHandThumb1 -26.253704 0.000000 33.147579
RightShoulder -17.382166 -25.487749 9.204108
RightArm -2.806628 -22.319660 84.458472
RightForeArm -26.534594 -0.000000 13.094111
RightHand 0.802485 -0.000000 37.545969
RightHandThumb1 -24.326973 -0.000000 -32.862282
LeftUpLeg 2.000508 8.720613 2.930405
LeftLeg -5.923625 -0.000000 0.000000
LeftFoot -20.170444 27.328118 -10.838287
LeftToeBase 28.050380 -0.000000 -0.000000
RightUpLeg 0.119862 -12.570704 -0.238279
RightLeg -1.935398 -0.000000 0.000000
RightFoot -20.612710 -21.680830 15.789892
RightToeBase 25.763678 -0.000000 -0.000000
138
root 18.822095 35.463244 -20.952447 -174.555266 -2.663242 -178.404332
Spine -11.153741 -0.005006 1.069946
Head 5.987717 -1.805433 0.300794
LeftShoulder -16.699259 -8.584248 0.578984
LeftArm -42.120445 21.307076 -100.109826
LeftForeArm -12.099966 -0.000000 7.951741
LeftHand -4.764188 -0.000000 -37.912553
LeftHandThumb1 -26.253704 0.000000 33.147579
RightShoulder -17.281559 -25.397390 9.163829
RightArm -2.691259 -22.482545 84.448599
RightForeArm -25.979030 -0.000000 13.219972
RightHand 1.049585 -0.000000 37.653016
RightHandThumb1 -24.326973 -0.000000 -32.862282
LeftUpLeg 1.943608 8.767859 2.924689
LeftLeg -5.944858 -0.000000 0.000000
LeftFoot -20.150757 27.342532 -10.832045
LeftToeBase 28.043772 -0.000000 -0.000000
RightUpLeg 0.045309 -12.536621 -0.215399
RightLeg -1.956818 -0.000000 0.000000
RightFoot -20.583408 -21.663262 15.794488
RightToeBase 25.744088 -0.000000 -0.000000
139
root 18.822437 35.463863 -20.940786 -174.498226 -2.605939 -178.392741
Spine -11.193715 0.088591 1.062075
Head 6.027598 -1.867910 0.315880
LeftShoulder -16.596633 -8.718828 0.605344
LeftArm -42.036170 21.887787 -100.520188
LeftForeArm -12.403578 0.000000 8.101053
LeftHand -4.733514 -0.000000 -38.504044
LeftHandThumb1 -26.253704 0.000000 33.147579
RightShoulder -17.167542 -25.337239 9.136357
RightArm -2.549396 -22.595904 84.429228
RightForeArm -25.609678 -0.000000 13.441282
RightHand 1.193798 -0.000000 37.834418
RightHandThumb1 -24.326973 -0.000000 -32.862282
LeftUpLeg 1.889578 8.808860 2.920611
LeftLeg -5.969785 -0.000000 0.000000
LeftFoot -20.131874 27.361628 -10.818322
LeftToeBase 28.086128 -0.000000 -0.000000
RightUpLeg -0.033224 -12.518990 -0.191432
RightLeg -1.971869 -0.000000 0.000000
RightFoot -20.539981 -21.627165 15.777436
RightToeBase 25.818932 -0.000000 -0.000000
140
root 18.821675 35.464348 -20.931312 -174.449668 -2.539970 -178.383380
Spine -11.232169 0.201822 1.054282
Head 6.091473 -1.950186 0.312182
LeftShoulder -16.451274 -8.886702 0.599380
LeftArm -41.980889 22.390490 -100.904149
LeftForeArm -12.601856 -0.000000 8.216368
LeftHand -4.613557 -0.000000 -39.007784
LeftHandThumb1 -26.253704 0.000000 33.147579
RightShoulder -17.084010 -25.249196 9.117519
RightArm -2.414156 -22.852249 84.415055
RightForeArm -25.272288 0.000000 13.708864
RightHand 1.103960 -0.000000 38.103214
RightHandThumb1 -24.326973 -0.000000 -32.862282
LeftUpLeg 1.856779 8.847085 2.913125
LeftLeg -6.012795 -0.000000 0.000000
LeftFoot -20.115531 27.398993 -10.823869
LeftToeBase 28.088234 -0.000000 -0.000000
RightUpLeg -0.094173 -12.518143 -0.173403
RightLeg -2.000013 -0.000000 0.000000
RightFoot -20.490406 -21.581547 15.755865
RightToeBase 25.839628 -0.000000 -0.000000
